# xmcd CD database file
#
# Track frame offsets:
#	150
#	15198
#	36193
#	67183
#	92558
#	119070
#	141273
#	152473
#	171830
#	191540
#	212363
#	229395
#	255055
#	274268
#	300068
#	317898
#
# Disc length: 4528 seconds
#
# Revision: 3
# Processed by: cddbd v1.5.2PL0 Copyright (c) Steve Scherf et al.
# Submitted via: CDex 1.51
#
DISCID=cf11ae10
DTITLE=Jackson Browne - The Best Of Jackson Browne
DYEAR=1900
DGENRE=Rock
TTITLE0=Doctor My Eyes
TTITLE1=These Days
TTITLE2=Fountain Of Sorrow
TTITLE3=Late For The Sky
TTITLE4=Pretender, The
TTITLE5=Running On Empty
TTITLE6=Stay
TTITLE7=Call It A Loan
TTITLE8=Somebody's Baby
TTITLE9=Tender Is The Night
TTITLE10=Lawyers In Love
TTITLE11=In The Shape Of A Heart
TTITLE12=Lives In The Balance
TTITLE13=The Barricades Of Heaven
TTITLE14=Rebel Jesus, The
TTITLE15=Next Voice You Hear, The
EXTD=
EXTT0=
EXTT1=
EXTT2=
EXTT3=
EXTT4=
EXTT5=
EXTT6=
EXTT7=
EXTT8=
EXTT9=
EXTT10=
EXTT11=
EXTT12=
EXTT13=
EXTT14=
EXTT15=
PLAYORDER=
